<svg width="19" height="25" viewBox="0 0 19 25" fill="none" xmlns="http://www.w3.org/2000/svg">
<path fill-rule="evenodd" clip-rule="evenodd" d="M18.7858 7.49707C18.4498 5.92908 17.7174 4.47339 16.6587 3.26904C15.9199 2.41394 15.031 1.70117 14.0358 1.16602C12.7124 0.428955 11.2206 0.0480957 9.70594 0.0603027L9.69556 0C9.48938 0.0274658 9.2826 0.0505371 9.07593 0.0736084C8.62122 0.12439 8.167 0.175171 7.72181 0.272217C6.20398 0.602051 4.79724 1.31873 3.63831 2.35278C2.52076 3.32202 1.64649 4.54016 1.08594 5.90918C0.7439 6.72864 0.526737 7.59497 0.441776 8.47888C0.405521 9.125 0.421024 9.77295 0.488285 10.4165C0.528446 10.899 0.600956 11.3783 0.705326 11.8512C0.987552 13.1217 1.41529 14.3553 1.97974 15.5281C2.53174 16.6956 3.1648 17.8231 3.87427 18.9022C4.66468 20.1292 5.53333 21.3038 6.47486 22.4191C7.08973 23.1372 7.7356 23.8296 8.35389 24.546C8.49463 24.6686 8.67115 24.7426 8.85718 24.7571C9.04334 24.7717 9.22913 24.7262 9.38733 24.627C10.3087 23.8226 11.2509 23.0406 12.1429 22.2002C12.7918 21.5723 13.4069 20.9106 13.9858 20.2179C14.2328 19.9281 14.4753 19.6353 14.7135 19.3386C15.0698 18.8949 15.4163 18.4425 15.7528 17.979C16.5925 16.8187 17.3029 15.5701 17.8712 14.2555C18.4413 12.9547 18.8012 11.5718 18.9374 10.1581C19.0258 9.26868 18.9746 8.37073 18.7858 7.49707ZM7.23255 6.90222C7.92835 6.29419 8.82996 5.97229 9.75489 6.00183C10.6703 6.10022 11.5142 6.54126 12.116 7.23547C12.7178 7.92981 13.0327 8.82568 12.9973 9.74255C12.9353 10.6661 12.5077 11.5275 11.8085 12.1368C11.1093 12.7463 10.1958 13.054 9.26892 12.9922C8.34204 12.9304 7.47779 12.5044 6.86621 11.8076C6.25464 11.1108 5.9458 10.2004 6.00782 9.27673C6.099 8.35913 6.53687 7.51038 7.23255 6.90222Z" fill="#746A2B"/>
</svg>
