<svg width="179" height="239" viewBox="0 0 179 239" fill="none" xmlns="http://www.w3.org/2000/svg">
<path fill-rule="evenodd" clip-rule="evenodd" d="M177.132 72.3679C173.891 57.2321 166.827 43.1811 156.614 31.5549C149.487 23.3016 140.913 16.421 131.313 11.255C118.548 4.14084 104.157 0.463826 89.5466 0.582434L89.4467 0C87.4617 0.264506 85.4702 0.487076 83.4798 0.709522C79.0901 1.20012 74.7058 1.69011 70.408 2.62805C55.767 5.81115 42.1975 12.7295 31.0178 22.7108C20.2379 32.0672 11.8046 43.8253 6.39703 57.0399C3.09772 64.9504 1.0034 73.3126 0.183781 81.8451C-0.166229 88.0814 -0.0160954 94.3356 0.632473 100.548C1.01943 105.206 1.71888 109.832 2.72586 114.396C5.44878 126.661 9.57373 138.569 15.0195 149.888C20.3432 161.158 26.4498 172.043 33.2942 182.458C40.9187 194.301 49.2977 205.641 58.38 216.406C61.4882 220.039 64.6787 223.603 67.8699 227.169L67.8708 227.17C70.7685 230.407 73.6669 233.646 76.5051 236.937C77.8629 238.12 79.5651 238.834 81.3601 238.974C83.1551 239.115 84.9478 238.675 86.4732 237.718C88.9895 235.52 91.5219 233.339 94.0548 231.158L94.0575 231.156L94.0584 231.155C100.471 225.633 106.886 220.108 113.055 214.293C119.312 208.232 125.246 201.845 130.831 195.158C136.778 188.175 142.46 181.011 147.876 173.547C155.976 162.347 162.828 150.295 168.31 137.604C173.809 125.049 177.281 111.699 178.594 98.0538C179.447 89.4681 178.954 80.8011 177.132 72.3679ZM64.5586 53.9247C72.2118 47.2358 82.1295 43.6953 92.304 44.0206C102.373 45.1025 111.656 49.9534 118.276 57.5908C124.896 65.2282 128.36 75.0831 127.97 85.1677C127.289 95.3276 122.585 104.802 114.893 111.506C107.202 118.21 97.1535 121.594 86.9579 120.914C76.7624 120.235 67.2555 115.548 60.5282 107.884C53.8008 100.219 50.4043 90.2045 51.0859 80.0446C52.0894 69.9499 56.9055 60.6135 64.5586 53.9247Z" fill="#746A2B"/>
</svg>
