<svg width="97" height="118" viewBox="0 0 97 118" fill="none" xmlns="http://www.w3.org/2000/svg">
<path d="M95.2507 35.7297C93.508 28.2569 89.7093 21.3195 84.2175 15.5794C80.3852 11.5046 75.7742 8.10745 70.6118 5.55685C63.7478 2.04443 56.0092 0.229002 48.1527 0.287561L48.099 0C44.6774 0.418609 41.2201 0.624475 37.8611 1.29753C29.9881 2.8691 22.6913 6.28486 16.6795 11.2129C10.8827 15.8324 6.3478 21.6376 3.43993 28.162C1.66576 32.0676 0.539565 36.1962 0.0988261 40.4089C-0.0893877 43.4879 -0.0086551 46.5758 0.340105 49.6429C0.548186 51.9426 0.924308 54.2269 1.4658 56.4803C2.93002 62.5354 5.14816 68.4146 8.07658 74.0035C10.9393 79.5677 14.2231 84.9415 17.9036 90.0838C22.0036 95.9313 26.5093 101.53 31.3932 106.845C34.5825 110.267 37.9326 113.567 41.1398 116.981C41.8699 117.566 42.7852 117.918 43.7505 117.987C44.7157 118.057 45.6797 117.84 46.5 117.367C51.2795 113.534 56.1662 109.807 60.7938 105.802C64.1589 102.809 67.3498 99.6557 70.3528 96.3541C73.551 92.9067 76.6064 89.3697 79.5187 85.6843C83.8742 80.1545 87.5587 74.204 90.5069 67.9386C93.4639 61.7398 95.3307 55.1484 96.0369 48.4115C96.4957 44.1726 96.2303 39.8934 95.2507 35.7297ZM85.8345 58.0233C84.3494 62.5375 82.3836 66.906 79.9653 71.0657C76.9967 76.2488 73.4711 81.146 69.4414 85.6843C66.1896 89.2876 62.8843 92.8664 59.4091 96.2809C56.3449 99.2851 53.0305 102.084 49.7876 104.924C48.126 106.377 46.3837 107.747 44.5166 109.282C43.1408 107.92 41.8367 106.705 40.6128 105.4C38.7546 103.389 36.9142 101.361 35.1721 99.2678C32.492 95.9846 29.812 92.7018 27.2034 89.4185C22.8371 83.7579 19.0028 77.7663 15.7416 71.5086C12.6837 65.6982 10.4038 59.5686 8.952 53.254C8.03647 49.1709 7.7926 44.9853 8.22844 40.8357C8.93187 33.324 12.1707 26.2008 17.4927 20.4619C22.8148 14.7231 29.9544 10.6549 37.9148 8.82423C42.849 7.75189 47.9484 7.47437 52.9859 8.00362C58.0741 8.42513 63.0054 9.84104 67.4493 12.1567C70.1778 13.5924 72.7453 15.272 75.1143 17.1715C79.0383 20.2619 82.1582 24.1211 84.2445 28.4656C86.076 32.0516 87.2559 35.8893 87.7375 39.8257C88.4164 45.9485 87.7791 52.1344 85.8615 58.0313L85.8345 58.0233Z" fill="#FCFCFC"/>
<path d="M49.0707 27.7052C45.3219 27.5947 41.6676 28.7974 38.8478 31.0697C36.0279 33.342 34.2534 36.5137 33.8837 39.943C33.6325 43.3945 34.884 46.7967 37.3628 49.4004C39.8415 52.0042 43.3443 53.5963 47.1009 53.8271C50.8575 54.0578 54.56 52.9082 57.3939 50.6308C60.2278 48.3535 61.9609 45.1349 62.2121 41.6834C62.3558 38.2575 61.0793 34.9097 58.6401 32.3152C56.2009 29.7206 52.7807 28.0727 49.0707 27.7052Z" fill="#FCFCFC"/>
</svg>
